<svg width="20" height="20" viewBox="0 0 20 20" fill="none" xmlns="http://www.w3.org/2000/svg">
<path fill-rule="evenodd" clip-rule="evenodd" d="M7.05792 2.65359C7.31827 2.91394 7.31827 3.33605 7.05792 3.5964L4.31779 6.33653H12.3237C15.4179 6.33653 17.9263 8.84489 17.9263 11.9391C17.9263 15.0333 15.4179 17.5417 12.3237 17.5417H9.63139C9.2632 17.5417 8.96472 17.2432 8.96472 16.875C8.96472 16.5068 9.2632 16.2083 9.63139 16.2083H12.3237C14.6815 16.2083 16.5929 14.2969 16.5929 11.9391C16.5929 9.58126 14.6815 7.66987 12.3237 7.66987H4.31779L7.05792 10.41C7.31827 10.6704 7.31827 11.0925 7.05792 11.3528C6.79757 11.6132 6.37546 11.6132 6.11511 11.3528L1.7655 7.0032L6.11511 2.65359C6.37546 2.39324 6.79757 2.39324 7.05792 2.65359Z" fill="#CAD4DD"/>
</svg>
