<svg width="20" height="20" viewBox="0 0 20 20" fill="none" xmlns="http://www.w3.org/2000/svg">
<path fill-rule="evenodd" clip-rule="evenodd" d="M12.6339 2.65359C12.3735 2.91394 12.3735 3.33605 12.6339 3.5964L15.374 6.33653H7.36807C4.27386 6.33653 1.76551 8.84489 1.76551 11.9391C1.76551 15.0333 4.27387 17.5417 7.36808 17.5417H10.0604C10.4286 17.5417 10.7271 17.2432 10.7271 16.875C10.7271 16.5068 10.4286 16.2083 10.0604 16.2083H7.36808C5.01025 16.2083 3.09884 14.2969 3.09884 11.9391C3.09884 9.58126 5.01024 7.66987 7.36807 7.66987H15.374L12.6339 10.41C12.3735 10.6704 12.3735 11.0925 12.6339 11.3528C12.8942 11.6132 13.3163 11.6132 13.5767 11.3528L17.9263 7.0032L13.5767 2.65359C13.3163 2.39324 12.8942 2.39324 12.6339 2.65359Z" fill="#CAD4DD"/>
</svg>
